# xmcd
#
# Track frame offsets: 
#        150
#        15058
#        43072
#        55706
#        77891
#        108083
#        135985
#        154749
#
# Disc length: 2638 seconds
#
# Revision: 0
# Processed by: cddbd v1.5.2PL0 Copyright (c) Steve Scherf et al.
# Submitted via: ExactAudioCopy v1.1
#
DISCID=4f0a4c08
DTITLE=Mississippi MacDonald and The Cottonmouth Kings - American Accent
DYEAR=2015
DGENRE=Blues
TTITLE0=My Kinda Woman
TTITLE1=You Said You Were Leaving
TTITLE2=Heading South
TTITLE3=Ballad Of Pat Hare
TTITLE4=The Blues Ain't All That Bad
TTITLE5=Someday
TTITLE6=If I Could Only Hear My Mother Pray Again
TTITLE7=American Accent
EXTD=
EXTT0=
EXTT1=
EXTT2=
EXTT3=
EXTT4=
EXTT5=
EXTT6=
EXTT7=
PLAYORDER=
